<svg xmlns="http://www.w3.org/2000/svg" viewBox="0 0 500 500"><g id="freepik--Shadow--inject-2"><ellipse id="freepik--path--inject-2" cx="250" cy="416.24" rx="193.89" ry="11.32" style="fill:#f5f5f5"></ellipse></g><g id="freepik--Board--inject-2"><polygon points="343.29 309.83 343.29 165.87 156.19 165.87 156.19 309.83 182.57 309.83 182.57 406.58 175.46 409.11 175.46 411.73 197.93 411.73 197.93 409.11 190.81 406.58 190.81 309.83 312.58 309.83 312.58 406.58 305.47 409.11 305.47 411.73 327.93 411.73 327.93 409.11 320.82 406.58 320.82 309.83 343.29 309.83" style="fill:#263238"></polygon><rect x="158.66" y="167.87" width="182.17" height="137.37" style="fill:#FDDD06"></rect><rect x="158.66" y="167.87" width="182.17" height="137.37" style="fill:#fff;isolation:isolate;opacity:0.9"></rect><rect x="284.68" y="250.98" width="5.74" height="5.74" style="fill:#263238"></rect><rect x="284.68" y="267.49" width="5.74" height="5.74" style="fill:#263238"></rect><rect x="284.68" y="284" width="5.74" height="5.74" style="fill:#FDDD06"></rect><rect x="284.68" y="267.49" width="5.74" height="5.74" style="fill:#fff;isolation:isolate;opacity:0.7000000000000001"></rect><path d="M271.66,191.09a.25.25,0,0,0,.25-.25.25.25,0,0,0-.25-.25h-2.3v-9.38h2.3a.25.25,0,0,0,0-.5h-2.3v-2.57a.25.25,0,0,0-.25-.25.25.25,0,0,0-.25.25v2.57H258.63v-2.57a.25.25,0,0,0-.5,0v2.57H247.91v-2.57a.25.25,0,0,0-.5,0v2.57H237.18v-2.57a.25.25,0,0,0-.25-.25.25.25,0,0,0-.25.25v2.57H226.46v-2.57a.25.25,0,0,0-.5,0v2.57H215.74v-2.57a.25.25,0,0,0-.5,0v2.57H205v-2.57a.25.25,0,0,0-.25-.25.25.25,0,0,0-.25.25v2.57H194.29v-2.57a.25.25,0,0,0-.5,0v2.57H183.57v-2.57a.25.25,0,0,0-.5,0v2.57H173v.5h10.09v9.38H173v.5h10.09v9.39H173v.5h10.09v9.38H173v.5h10.09v9.39H173v.5h10.09v10.08a.25.25,0,0,0,.5,0V220.75h10.22v10.08a.25.25,0,0,0,.5,0V220.75h10.23v10.08a.25.25,0,0,0,.25.25.25.25,0,0,0,.25-.25V220.75h10.22v10.08a.25.25,0,1,0,.5,0V220.75H226v10.08a.25.25,0,0,0,.5,0V220.75h10.22v10.08a.25.25,0,0,0,.25.25.25.25,0,0,0,.25-.25V220.75h10.23v10.08a.25.25,0,0,0,.5,0V220.75h10.22v10.08a.25.25,0,1,0,.5,0V220.75h10.23v10.08a.25.25,0,0,0,.25.25.25.25,0,0,0,.25-.25V220.75h2.3a.25.25,0,0,0,0-.5h-2.3v-9.39h2.3a.25.25,0,0,0,.25-.25.25.25,0,0,0-.25-.25h-2.3V201h2.3a.25.25,0,0,0,0-.5h-2.3v-9.39Zm-77.87,29.16H183.57v-9.39h10.22Zm0-9.89H183.57V201h10.22Zm0-9.88H183.57v-9.39h10.22Zm0-9.89H183.57v-9.38h10.22Zm10.73,29.66H194.29v-9.39h10.23Zm0-9.89H194.29V201h10.23Zm0-9.88H194.29v-9.39h10.23Zm0-9.89H194.29v-9.38h10.23Zm10.72,29.66H205v-9.39h10.22Zm0-9.89H205V201h10.22Zm0-9.88H205v-9.39h10.22Zm0-9.89H205v-9.38h10.22ZM226,220.25H215.74v-9.39H226Zm0-9.89H215.74V201H226Zm0-9.88H215.74v-9.39H226Zm0-9.89H215.74v-9.38H226Zm10.72,29.66H226.46v-9.39h10.22Zm0-9.89H226.46V201h10.22Zm0-9.88H226.46v-9.39h10.22Zm0-9.89H226.46v-9.38h10.22Zm10.73,29.66H237.18v-9.39h10.23Zm0-9.89H237.18V201h10.23Zm0-9.88H237.18v-9.39h10.23Zm0-9.89H237.18v-9.38h10.23Zm10.72,29.66H247.91v-9.39h10.22Zm0-9.89H247.91V201h10.22Zm0-9.88H247.91v-9.39h10.22Zm0-9.89H247.91v-9.38h10.22Zm10.73,29.66H258.63v-9.39h10.23Zm0-9.89H258.63V201h10.23Zm0-9.88H258.63v-9.39h10.23Zm0-9.89H258.63v-9.38h10.23Z" style="opacity:0.1"></path><rect x="183.02" y="215.28" width="6.21" height="15.28" style="fill:#FDDD06"></rect><rect x="187.28" y="215.28" width="1.96" height="15.28" style="fill:#fff;isolation:isolate;opacity:0.2"></rect><rect x="199.65" y="208.76" width="6.21" height="21.8" style="fill:#FDDD06"></rect><rect x="203.9" y="208.76" width="1.96" height="21.8" style="fill:#fff;isolation:isolate;opacity:0.2"></rect><rect x="216.27" y="212.4" width="6.21" height="18.15" style="fill:#FDDD06"></rect><rect x="220.53" y="212.4" width="1.96" height="18.15" style="fill:#fff;isolation:isolate;opacity:0.2"></rect><rect x="232.9" y="205.39" width="6.21" height="25.17" style="fill:#FDDD06"></rect><rect x="237.15" y="205.39" width="1.96" height="25.17" style="fill:#fff;isolation:isolate;opacity:0.2"></rect><rect x="249.53" y="192.55" width="6.21" height="38.01" style="fill:#FDDD06"></rect><rect x="253.78" y="192.55" width="1.96" height="38.01" style="fill:#fff;isolation:isolate;opacity:0.2"></rect><path d="M275.93,231.33H173.05a.5.5,0,0,1-.5-.5V176.46a.5.5,0,0,1,.5-.5.5.5,0,0,1,.5.5v53.87H275.93a.5.5,0,0,1,.5.5A.5.5,0,0,1,275.93,231.33Z" style="fill:#263238"></path><path d="M175.7,218a.5.5,0,0,1-.43-.24.51.51,0,0,1,.18-.69l10.42-6.2,15.82-6.55a.48.48,0,0,1,.29,0l17.35,3.61L235.74,201,261.2,181.5a.51.51,0,0,1,.7.1.5.5,0,0,1-.09.7L236.3,201.79a.6.6,0,0,1-.11.06l-16.62,7a.48.48,0,0,1-.29,0l-17.35-3.61-15.61,6.46L176,217.91A.48.48,0,0,1,175.7,218Z" style="fill:#263238"></path><g style="opacity:0.5"><path d="M275.93,231.33H173.05a.5.5,0,0,1-.5-.5V176.46a.5.5,0,0,1,.5-.5.5.5,0,0,1,.5.5v53.87H275.93a.5.5,0,0,1,.5.5A.5.5,0,0,1,275.93,231.33Z" style="fill:#fff"></path></g><polygon points="263.31 180.49 258.47 182.24 260.38 184.72 263.31 180.49" style="fill:#263238"></polygon><path d="M304.41,205.28l6.21,20.39a21.32,21.32,0,1,1,1-40.46Z" style="fill:#FDDD06"></path><path d="M304.41,205.28l7.29-20A21.3,21.3,0,0,1,324,196.76Z" style="fill:#FDDD06"></path><path d="M304.41,205.28,324,196.85a21.31,21.31,0,0,1-13.29,28.8Z" style="fill:#FDDD06"></path><path d="M304.41,205.28l6.21,20.39a21.32,21.32,0,1,1,1-40.46Z" style="fill:#fff;isolation:isolate;opacity:0.7000000000000001"></path><path d="M304.41,205.28,324,196.85a21.31,21.31,0,0,1-13.29,28.8Z" style="fill:#fff;isolation:isolate;opacity:0.4"></path><path d="M271.66,257.1a.25.25,0,0,0,0-.5h-2.3v-9.39h2.3a.25.25,0,0,0,.25-.25.25.25,0,0,0-.25-.25h-2.3v-2.57a.25.25,0,0,0-.25-.25.25.25,0,0,0-.25.25v2.57H258.63v-2.57a.25.25,0,0,0-.5,0v2.57H247.91v-2.57a.25.25,0,0,0-.5,0v2.57H237.18v-2.57a.25.25,0,0,0-.25-.25.25.25,0,0,0-.25.25v2.57H226.46v-2.57a.25.25,0,0,0-.5,0v2.57H215.74v-2.57a.25.25,0,0,0-.5,0v2.57H205v-2.57a.25.25,0,0,0-.25-.25.25.25,0,0,0-.25.25v2.57H194.29v-2.57a.25.25,0,0,0-.5,0v2.57H183.57v-2.57a.25.25,0,0,0-.5,0v2.57H173v.5h10.09v9.39H173v.5h10.09v9.38H173v.5h10.09v9.39H173v.5h10.09v9.38H173v.5h10.09v10.09a.25.25,0,0,0,.5,0V286.75h10.22v10.09a.25.25,0,0,0,.5,0V286.75h10.23v10.09a.25.25,0,0,0,.25.25.25.25,0,0,0,.25-.25V286.75h10.22v10.09a.25.25,0,0,0,.5,0V286.75H226v10.09a.25.25,0,0,0,.5,0V286.75h10.22v10.09a.25.25,0,0,0,.25.25.25.25,0,0,0,.25-.25V286.75h10.23v10.09a.25.25,0,0,0,.5,0V286.75h10.22v10.09a.25.25,0,1,0,.5,0V286.75h10.23v10.09a.25.25,0,0,0,.25.25.25.25,0,0,0,.25-.25V286.75h2.3a.25.25,0,1,0,0-.5h-2.3v-9.38h2.3a.25.25,0,0,0,0-.5h-2.3V267h2.3a.25.25,0,0,0,.25-.25.25.25,0,0,0-.25-.25h-2.3V257.1Zm-77.87,29.15H183.57v-9.38h10.22Zm0-9.88H183.57V267h10.22Zm0-9.89H183.57V257.1h10.22Zm0-9.88H183.57v-9.39h10.22Zm10.73,29.65H194.29v-9.38h10.23Zm0-9.88H194.29V267h10.23Zm0-9.89H194.29V257.1h10.23Zm0-9.88H194.29v-9.39h10.23Zm10.72,29.65H205v-9.38h10.22Zm0-9.88H205V267h10.22Zm0-9.89H205V257.1h10.22Zm0-9.88H205v-9.39h10.22ZM226,286.25H215.74v-9.38H226Zm0-9.88H215.74V267H226Zm0-9.89H215.74V257.1H226Zm0-9.88H215.74v-9.39H226Zm10.72,29.65H226.46v-9.38h10.22Zm0-9.88H226.46V267h10.22Zm0-9.89H226.46V257.1h10.22Zm0-9.88H226.46v-9.39h10.22Zm10.73,29.65H237.18v-9.38h10.23Zm0-9.88H237.18V267h10.23Zm0-9.89H237.18V257.1h10.23Zm0-9.88H237.18v-9.39h10.23Zm10.72,29.65H247.91v-9.38h10.22Zm0-9.88H247.91V267h10.22Zm0-9.89H247.91V257.1h10.22Zm0-9.88H247.91v-9.39h10.22Zm10.73,29.65H258.63v-9.38h10.23Zm0-9.88H258.63V267h10.23Zm0-9.89H258.63V257.1h10.23Zm0-9.88H258.63v-9.39h10.23Z" style="opacity:0.1"></path><path d="M173,286.25s6.53-9.88,10.59-9.88c4.28,0,6.55,5.51,10.22,5.51s6.29-12.13,10.73-12.13,6.77,15.08,11.22,15.08,8.68-18.35,13.38-18.35,5.2,5.77,7.56,5.77c2.83,0,5-15.65,11.23-15.65,6,0,6,9.88,10.72,9.88s3.72-15.5,10.73-15.5v46.11H173.05Z" style="fill:#FDDD06"></path><path d="M173,286.25s6.53-9.88,10.59-9.88c4.28,0,6.55,5.51,10.22,5.51s6.29-12.13,10.73-12.13,6.77,15.08,11.22,15.08,8.68-18.35,13.38-18.35,5.2,5.77,7.56,5.77c2.83,0,5-15.65,11.23-15.65,6,0,6,9.88,10.72,9.88s3.72-15.5,10.73-15.5v46.11H173.05Z" style="fill:#fff;isolation:isolate;opacity:0.4"></path><path d="M173.4,286.53l-.84-.55c.27-.42,6.73-10.11,11-10.11,2.41,0,4.16,1.54,5.85,3,1.44,1.27,2.79,2.47,4.37,2.47s3-2.73,4.4-5.37c1.82-3.32,3.7-6.76,6.33-6.76s4.25,3.8,6.06,7.83c1.52,3.4,3.26,7.25,5.16,7.25s4.1-4.62,6-8.7c2.38-5,4.63-9.65,7.33-9.65,3,0,4.44,2.13,5.57,3.84.69,1,1.28,1.93,2,1.93s2-2.9,2.91-5.23c1.88-4.64,4.22-10.42,8.31-10.42,3.47,0,5.09,3,6.52,5.65,1.23,2.27,2.29,4.23,4.2,4.23,1.75,0,2.68-3,3.67-6.25,1.33-4.33,2.84-9.25,7.06-9.25v1c-3.48,0-4.82,4.35-6.11,8.55-1.09,3.57-2.13,7-4.62,7s-3.82-2.42-5.08-4.76c-1.36-2.52-2.77-5.12-5.64-5.12-3.42,0-5.62,5.43-7.39,9.8-1.37,3.39-2.36,5.85-3.83,5.85-1.26,0-2-1.16-2.84-2.38-1-1.59-2.24-3.39-4.73-3.39-2.07,0-4.38,4.83-6.43,9.09-2.28,4.76-4.44,9.26-6.95,9.26s-4.26-3.81-6.08-7.84c-1.52-3.39-3.25-7.24-5.14-7.24s-3.85,3.31-5.45,6.24-3.23,5.89-5.28,5.89-3.52-1.38-5-2.72-3.15-2.79-5.18-2.79C180.46,276.87,175.17,283.84,173.4,286.53Z" style="fill:#FDDD06"></path><path d="M193,289.55a1.72,1.72,0,0,1-.32,0c-2.35-.28-3.64-3.1-4.69-5.37a18.1,18.1,0,0,0-1.08-2.13c-1.06-1.6-2.25-2.34-3.54-2.19-2,.24-3.73,1.9-5.28,3.36l-.67.63c-1.4,1.29-2.77,2.65-4.05,4.06l-.74-.67c1.31-1.43,2.69-2.82,4.11-4.13.22-.19.43-.4.66-.61,1.58-1.5,3.55-3.36,5.86-3.63,1.66-.21,3.22.71,4.48,2.63a17.38,17.38,0,0,1,1.16,2.26c.94,2,2.11,4.58,3.9,4.8s3.8-3.12,4.93-5.12c.21-.39.41-.73.58-1,.67-1.1,1.32-2.21,2-3.32,1.11-1.9,2.27-3.88,3.51-5.75a41.55,41.55,0,0,1,3.21-4.27c1.67-1.93,3.27-2.91,4.77-2.92a4,4,0,0,1,3.09,1.56,22.37,22.37,0,0,1,3.61,6.5,33.2,33.2,0,0,0,2.11,4.42,3.82,3.82,0,0,0,1.35,1.46c.93.47,2-.32,2.7-1.08a35.48,35.48,0,0,0,4.27-5.89l.32-.51c.14-.23.29-.48.44-.75,1-1.71,2.4-4.07,4.64-4.13,1.43,0,2.49,1.27,3.48,2.54,1.14,1.45,1.9,2.3,2.82,2a2.64,2.64,0,0,0,1-.82,28.42,28.42,0,0,0,4-7c.37-.82.73-1.64,1.11-2.44a6.23,6.23,0,0,1,.89-1.45,2.56,2.56,0,0,1,2.32-1c2,.33,3.51,3.61,4.38,5.58.12.26.22.49.31.67l.13.28c.89,1.86,1.81,3.79,3.29,4.31a3.41,3.41,0,0,0,2.62-.33l.88-.43c2.55-1.25,4.75-2.33,7.91-2.33v1c-2.93,0-4.94,1-7.47,2.22l-.89.44a4.3,4.3,0,0,1-3.38.37c-1.88-.66-2.93-2.87-3.86-4.82l-.13-.28c-.09-.19-.2-.42-.32-.7-.69-1.54-2.11-4.75-3.63-5a1.63,1.63,0,0,0-1.42.69,5.1,5.1,0,0,0-.72,1.22c-.39.79-.74,1.6-1.1,2.4a29.41,29.41,0,0,1-4.1,7.25,3.53,3.53,0,0,1-1.41,1.11c-1.68.62-2.88-.91-4-2.27-.84-1.06-1.7-2.16-2.65-2.16h0c-1.68,0-2.85,2-3.79,3.64-.17.28-.32.54-.47.77l-.31.51a36.94,36.94,0,0,1-4.4,6.06c-1.36,1.43-2.71,1.87-3.87,1.28a4.69,4.69,0,0,1-1.75-1.84,33.85,33.85,0,0,1-2.18-4.55,21.14,21.14,0,0,0-3.44-6.22,3.1,3.1,0,0,0-2.31-1.23h0c-1.2,0-2.55.88-4,2.57a40.72,40.72,0,0,0-3.12,4.17c-1.24,1.85-2.38,3.81-3.49,5.71-.65,1.11-1.31,2.23-2,3.33-.16.27-.35.61-.56,1C197.3,286.18,195.4,289.55,193,289.55Z" style="fill:#263238"></path><path d="M193,289.55a1.72,1.72,0,0,1-.32,0c-2.35-.28-3.64-3.1-4.69-5.37a18.1,18.1,0,0,0-1.08-2.13c-1.06-1.6-2.25-2.34-3.54-2.19-2,.24-3.73,1.9-5.28,3.36l-.67.63c-1.4,1.29-2.77,2.65-4.05,4.06l-.74-.67c1.31-1.43,2.69-2.82,4.11-4.13.22-.19.43-.4.66-.61,1.58-1.5,3.55-3.36,5.86-3.63,1.66-.21,3.22.71,4.48,2.63a17.38,17.38,0,0,1,1.16,2.26c.94,2,2.11,4.58,3.9,4.8s3.8-3.12,4.93-5.12c.21-.39.41-.73.58-1,.67-1.1,1.32-2.21,2-3.32,1.11-1.9,2.27-3.88,3.51-5.75a41.55,41.55,0,0,1,3.21-4.27c1.67-1.93,3.27-2.91,4.77-2.92a4,4,0,0,1,3.09,1.56,22.37,22.37,0,0,1,3.61,6.5,33.2,33.2,0,0,0,2.11,4.42,3.82,3.82,0,0,0,1.35,1.46c.93.47,2-.32,2.7-1.08a35.48,35.48,0,0,0,4.27-5.89l.32-.51c.14-.23.29-.48.44-.75,1-1.71,2.4-4.07,4.64-4.13,1.43,0,2.49,1.27,3.48,2.54,1.14,1.45,1.9,2.3,2.82,2a2.64,2.64,0,0,0,1-.82,28.42,28.42,0,0,0,4-7c.37-.82.73-1.64,1.11-2.44a6.23,6.23,0,0,1,.89-1.45,2.56,2.56,0,0,1,2.32-1c2,.33,3.51,3.61,4.38,5.58.12.26.22.49.31.67l.13.28c.89,1.86,1.81,3.79,3.29,4.31a3.41,3.41,0,0,0,2.62-.33l.88-.43c2.55-1.25,4.75-2.33,7.91-2.33v1c-2.93,0-4.94,1-7.47,2.22l-.89.44a4.3,4.3,0,0,1-3.38.37c-1.88-.66-2.93-2.87-3.86-4.82l-.13-.28c-.09-.19-.2-.42-.32-.7-.69-1.54-2.11-4.75-3.63-5a1.63,1.63,0,0,0-1.42.69,5.1,5.1,0,0,0-.72,1.22c-.39.79-.74,1.6-1.1,2.4a29.41,29.41,0,0,1-4.1,7.25,3.53,3.53,0,0,1-1.41,1.11c-1.68.62-2.88-.91-4-2.27-.84-1.06-1.7-2.16-2.65-2.16h0c-1.68,0-2.85,2-3.79,3.64-.17.28-.32.54-.47.77l-.31.51a36.94,36.94,0,0,1-4.4,6.06c-1.36,1.43-2.71,1.87-3.87,1.28a4.69,4.69,0,0,1-1.75-1.84,33.85,33.85,0,0,1-2.18-4.55,21.14,21.14,0,0,0-3.44-6.22,3.1,3.1,0,0,0-2.31-1.23h0c-1.2,0-2.55.88-4,2.57a40.72,40.72,0,0,0-3.12,4.17c-1.24,1.85-2.38,3.81-3.49,5.71-.65,1.11-1.31,2.23-2,3.33-.16.27-.35.61-.56,1C197.3,286.18,195.4,289.55,193,289.55Z" style="fill:#fff;isolation:isolate;opacity:0.7000000000000001"></path><path d="M173.31,286.63l-.66-.75c.22-.2,5.46-4.82,10.35-4.82a15.38,15.38,0,0,1,5.88,1.25,12.9,12.9,0,0,0,4.91,1.1c2,0,3.81-2.61,5.56-5.14s3.29-4.74,5.17-4.74,3.43,1.76,5.12,3.62,3.56,3.91,5.6,3.91,4.79-3.18,7.28-6c2.7-3,5.24-5.91,7.37-5.91a7.18,7.18,0,0,1,5.1,2.39c.75.68,1.34,1.22,2,1.22.52-.26,1.76-3.53,2.75-6.16,2.32-6.1,4.94-13,8.21-13,2.9,0,5,4.33,7,8.53,1.42,2.91,3,6.22,4.31,6.22s2.61-1.93,3.93-4c1.62-2.5,3.45-5.32,6.11-5.32h.07v1c-2.14,0-3.77,2.45-5.33,4.86s-2.87,4.42-4.77,4.42-3.44-3.14-5.21-6.79-3.86-8-6.13-8c-2.58,0-5.4,7.45-7.27,12.38s-2.67,6.8-3.69,6.8a4.22,4.22,0,0,1-2.63-1.48,6.28,6.28,0,0,0-4.43-2.13c-1.68,0-4.19,2.83-6.62,5.58-2.89,3.25-5.62,6.33-8,6.33s-4.44-2.16-6.34-4.24c-1.54-1.69-3-3.29-4.38-3.29s-2.88,2.2-4.35,4.31c-1.9,2.74-3.86,5.57-6.38,5.57a13.94,13.94,0,0,1-5.26-1.16,14.53,14.53,0,0,0-5.53-1.19C178.49,282.06,173.36,286.58,173.31,286.63Z" style="fill:#263238"></path><path d="M275.93,297.34H173.05a.5.5,0,0,1-.5-.5V242.46a.5.5,0,0,1,.5-.5.5.5,0,0,1,.5.5v53.88H275.93a.5.5,0,0,1,.5.5A.5.5,0,0,1,275.93,297.34Z" style="fill:#263238"></path><g style="opacity:0.5"><path d="M275.93,297.34H173.05a.5.5,0,0,1-.5-.5V242.46a.5.5,0,0,1,.5-.5.5.5,0,0,1,.5.5v53.88H275.93a.5.5,0,0,1,.5.5A.5.5,0,0,1,275.93,297.34Z" style="fill:#fff"></path></g><g style="opacity:0.30000000000000004"><rect x="298.47" y="250.48" width="24.64" height="1"></rect><rect x="298.47" y="253.32" width="24.64" height="1"></rect><rect x="298.47" y="256.15" width="24.64" height="1"></rect><rect x="298.47" y="258.99" width="14.64" height="1"></rect></g><g style="opacity:0.30000000000000004"><rect x="298.47" y="266.99" width="24.64" height="1"></rect><rect x="298.47" y="269.82" width="24.64" height="1"></rect><rect x="298.47" y="272.66" width="24.64" height="1"></rect><rect x="298.47" y="275.5" width="7.64" height="1"></rect></g><g style="opacity:0.30000000000000004"><rect x="298.47" y="283.5" width="24.64" height="1"></rect><rect x="298.47" y="286.33" width="24.64" height="1"></rect><rect x="298.47" y="289.17" width="24.64" height="1"></rect><rect x="298.47" y="292" width="19.64" height="1"></rect></g></g><g id="freepik--speech-bubble-2--inject-2"><path d="M364.57,88.86H333a10.87,10.87,0,0,0-10.86,10.87v30.71A10.86,10.86,0,0,0,333,141.3h17.59l5.35,11.47,2-11.47h6.7a10.87,10.87,0,0,0,10.87-10.86V99.73A10.87,10.87,0,0,0,364.57,88.86Z" style="fill:#FDDD06"></path><path d="M356.34,116.38c1.26-3.27,4.34-5.13,6.9-4.15s3.6,4.43,2.35,7.7-4.35,5.12-6.9,4.14S355.08,119.65,356.34,116.38Z" style="fill:#FDDD06"></path><path d="M335.6,108.54,339.88,97s5.32,8.14,11.63,10.56l-2.2,5.73-.35.9-2.2,5.74c-6.31-2.43-15.71,0-15.71,0Z" style="fill:#FDDD06"></path><path d="M356.34,116.38c1.26-3.27,4.34-5.13,6.9-4.15s3.6,4.43,2.35,7.7-4.35,5.12-6.9,4.14S355.08,119.65,356.34,116.38Z" style="fill:#fff;isolation:isolate;opacity:0.8"></path><path d="M335.6,108.54,339.88,97s5.32,8.14,11.63,10.56l-2.2,5.73-.35.9-2.2,5.74c-6.31-2.43-15.71,0-15.71,0Z" style="fill:#fff;isolation:isolate;opacity:0.8"></path><path d="M357.64,122.59s-3.33,6.69-6.94,9.48a.65.65,0,0,1-.85,0l-4-3.67a.66.66,0,0,1,.1-1c1.55-1,5.14-3.41,7-6.36C355.39,117.11,357.64,122.59,357.64,122.59Z" style="fill:#263238"></path><path d="M331.15,120.28c1.45.56,4.64-4.24,7.12-10.71s3.33-12.16,1.88-12.72-4.63,4.24-7.12,10.71S329.71,119.72,331.15,120.28Z" style="fill:#fff"></path><path d="M339.85,99.62a30.35,30.35,0,0,1-2,8.27l-.41,1.09c-.12.3-.23.61-.36.9a31.51,31.51,0,0,1-4,7.44c-.69.86-1.28,1.28-1.68,1.12-1.16-.44-.33-5.4,1.85-11.07s4.88-9.91,6-9.47C339.7,98,339.87,98.66,339.85,99.62Z" style="isolation:isolate;opacity:0.4"></path><path d="M339.85,99.62a30.35,30.35,0,0,1-2,8.27l-.41,1.09c-.12.3-.23.61-.36.9a31.51,31.51,0,0,1-4,7.44A32.07,32.07,0,0,1,335.5,108,33.06,33.06,0,0,1,339.85,99.62Z" style="isolation:isolate;opacity:0.2"></path><path d="M359.39,125.11s1.29-1.23,3.23-6.27c2.09-5.45,1.81-6.85,1.81-6.85l-14.09-5.41s.1,1.85-1.86,7-3.18,6.15-3.18,6.15Z" style="fill:#263238"></path><path d="M337.11,109.88c.13-.3.24-.6.36-.91s.28-.73.41-1.09l-1.41-.23a.63.63,0,0,0-.69.45l-.08.21a.62.62,0,0,0,.21.79Z" style="fill:#fff"></path><path d="M337.11,109.88c.13-.3.24-.6.36-.91s.28-.73.41-1.09l-1.41-.23a.63.63,0,0,0-.69.45l-.08.21a.62.62,0,0,0,.21.79Z" style="isolation:isolate;opacity:0.2"></path><path d="M359.39,125.11s1.29-1.23,3.23-6.27c2.09-5.45,1.81-6.85,1.81-6.85l-14.09-5.41s.1,1.85-1.86,7-3.18,6.15-3.18,6.15Z" style="fill:#fff;isolation:isolate;opacity:0.2"></path></g></svg>
