<svg xmlns="http://www.w3.org/2000/svg" xmlns:xlink="http://www.w3.org/1999/xlink" zoomAndPan="magnify" preserveAspectRatio="xMidYMid meet" version="1.0" viewBox="8.03 136.53 361.65 115.63"><defs><g/><clipPath id="187e9aac2f"><path d="M 8.03125 136.527344 L 115.796875 136.527344 L 115.796875 244.292969 L 8.03125 244.292969 Z M 8.03125 136.527344 " clip-rule="nonzero"/></clipPath><clipPath id="f5c1e65a56"><path d="M 61.914062 136.527344 C 32.15625 136.527344 8.03125 160.652344 8.03125 190.410156 C 8.03125 220.167969 32.15625 244.292969 61.914062 244.292969 C 91.675781 244.292969 115.796875 220.167969 115.796875 190.410156 C 115.796875 160.652344 91.675781 136.527344 61.914062 136.527344 " clip-rule="nonzero"/></clipPath></defs><g clip-path="url(#187e9aac2f)"><g clip-path="url(#f5c1e65a56)"><path fill="#fddd06" d="M 8.03125 136.527344 L 115.796875 136.527344 L 115.796875 244.292969 L 8.03125 244.292969 Z M 8.03125 136.527344 " fill-opacity="1" fill-rule="nonzero"/></g></g><g fill="#000000" fill-opacity="1"><g transform="translate(116.044698, 227.065671)"><g><path d="M 0.6875 -56.984375 L 0.6875 -71.234375 L 50.765625 -71.234375 L 50.765625 -56.984375 L 33.84375 -56.984375 L 33.84375 0 L 17.609375 0 L 17.609375 -56.984375 Z M 0.6875 -56.984375 "/></g></g></g><g fill="#000000" fill-opacity="1"><g transform="translate(167.495719, 227.065671)"><g><path d="M 5.1875 0 L 5.1875 -44.296875 L 20.46875 -44.296875 L 20.46875 -37.90625 L 20.640625 -37.90625 C 20.753906 -38.132812 20.941406 -38.421875 21.203125 -38.765625 C 21.460938 -39.109375 22.019531 -39.710938 22.875 -40.578125 C 23.738281 -41.441406 24.660156 -42.21875 25.640625 -42.90625 C 26.617188 -43.601562 27.882812 -44.222656 29.4375 -44.765625 C 31 -45.316406 32.582031 -45.59375 34.1875 -45.59375 C 35.863281 -45.59375 37.503906 -45.359375 39.109375 -44.890625 C 40.722656 -44.429688 41.90625 -43.972656 42.65625 -43.515625 L 43.859375 -42.828125 L 37.46875 -29.875 C 35.570312 -31.488281 32.925781 -32.296875 29.53125 -32.296875 C 27.6875 -32.296875 26.101562 -31.890625 24.78125 -31.078125 C 23.457031 -30.273438 22.519531 -29.296875 21.96875 -28.140625 C 21.425781 -26.992188 21.039062 -26.015625 20.8125 -25.203125 C 20.582031 -24.398438 20.46875 -23.769531 20.46875 -23.3125 L 20.46875 0 Z M 5.1875 0 "/></g></g></g><g fill="#000000" fill-opacity="1"><g transform="translate(210.486667, 227.065671)"><g><path d="M 8.203125 -5.484375 C 4.054688 -10.003906 1.984375 -15.546875 1.984375 -22.109375 C 1.984375 -28.671875 4.054688 -34.222656 8.203125 -38.765625 C 12.347656 -43.316406 17.613281 -45.59375 24 -45.59375 C 29.875 -45.59375 34.710938 -43.75 38.515625 -40.0625 L 38.515625 -44.296875 L 53.796875 -44.296875 L 53.796875 0 L 38.6875 0 L 38.6875 -5.015625 L 38.515625 -5.015625 C 34.710938 -0.804688 29.875 1.296875 24 1.296875 C 17.613281 1.296875 12.347656 -0.960938 8.203125 -5.484375 Z M 21.1875 -29.609375 C 19.207031 -27.660156 18.21875 -25.160156 18.21875 -22.109375 C 18.21875 -19.054688 19.164062 -16.566406 21.0625 -14.640625 C 22.96875 -12.710938 25.472656 -11.75 28.578125 -11.75 C 31.566406 -11.75 34.023438 -12.722656 35.953125 -14.671875 C 37.890625 -16.628906 38.859375 -19.109375 38.859375 -22.109375 C 38.859375 -25.160156 37.863281 -27.660156 35.875 -29.609375 C 33.882812 -31.566406 31.453125 -32.546875 28.578125 -32.546875 C 25.640625 -32.546875 23.175781 -31.566406 21.1875 -29.609375 Z M 21.1875 -29.609375 "/></g></g></g><g fill="#000000" fill-opacity="1"><g transform="translate(269.448157, 227.065671)"><g><path d="M 28.75 -33.0625 C 25.875 -33.0625 23.398438 -32 21.328125 -29.875 C 19.253906 -27.75 18.21875 -25.1875 18.21875 -22.1875 C 18.21875 -19.132812 19.253906 -16.539062 21.328125 -14.40625 C 23.398438 -12.28125 25.875 -11.21875 28.75 -11.21875 C 30.132812 -11.21875 31.441406 -11.390625 32.671875 -11.734375 C 33.910156 -12.085938 34.820312 -12.4375 35.40625 -12.78125 L 36.171875 -13.296875 L 41.359375 -2.671875 C 40.953125 -2.390625 40.390625 -2.03125 39.671875 -1.59375 C 38.953125 -1.164062 37.3125 -0.578125 34.75 0.171875 C 32.1875 0.921875 29.4375 1.296875 26.5 1.296875 C 20 1.296875 14.285156 -0.988281 9.359375 -5.5625 C 4.441406 -10.144531 1.984375 -15.628906 1.984375 -22.015625 C 1.984375 -28.460938 4.441406 -34.003906 9.359375 -38.640625 C 14.285156 -43.273438 20 -45.59375 26.5 -45.59375 C 29.4375 -45.59375 32.144531 -45.242188 34.625 -44.546875 C 37.101562 -43.859375 38.859375 -43.171875 39.890625 -42.484375 L 41.359375 -41.4375 L 36.171875 -31 C 34.273438 -32.375 31.800781 -33.0625 28.75 -33.0625 Z M 28.75 -33.0625 "/></g></g></g><g fill="#000000" fill-opacity="1"><g transform="translate(311.834821, 227.065671)"><g><path d="M 55.78125 -44.296875 L 34.703125 -23.140625 L 57.84375 0 L 38.15625 0 L 20.46875 -17.703125 L 20.46875 0 L 5.1875 0 L 5.1875 -74.25 L 20.46875 -74.25 L 20.46875 -28.84375 L 35.921875 -44.296875 Z M 55.78125 -44.296875 "/></g></g></g><g fill="#000000" fill-opacity="1"><g transform="translate(33.717094, 227.065671)"><g><path d="M 5.1875 -71.234375 L 25.8125 -71.234375 C 35.71875 -71.234375 44.179688 -67.847656 51.203125 -61.078125 C 58.222656 -54.316406 61.734375 -45.84375 61.734375 -35.65625 C 61.734375 -25.414062 58.234375 -16.910156 51.234375 -10.140625 C 44.242188 -3.378906 35.769531 0 25.8125 0 L 5.1875 0 Z M 21.40625 -14.5 L 23.921875 -14.5 C 29.847656 -14.5 34.695312 -16.5 38.46875 -20.5 C 42.238281 -24.5 44.148438 -29.523438 44.203125 -35.578125 C 44.203125 -41.617188 42.316406 -46.65625 38.546875 -50.6875 C 34.773438 -54.71875 29.898438 -56.734375 23.921875 -56.734375 L 21.40625 -56.734375 Z M 21.40625 -14.5 "/></g></g></g><g fill="#000000" fill-opacity="1"><g transform="translate(135.513278, 251.938418)"><g><path d="M 6.527344 -5.230469 L 6.527344 -12.171875 L 1.519531 -12.171875 L 1.519531 -10.582031 L 4.78125 -10.582031 L 4.78125 -5.230469 C 4.78125 -2.96875 3.851562 -1.554688 0.742188 -1.554688 C 0.550781 -1.554688 0.34375 -1.554688 0.136719 -1.570312 L 0.136719 0.0703125 C 0.3125 0.0703125 0.5 0.0859375 0.65625 0.0859375 C 4.921875 0.0859375 6.527344 -1.777344 6.527344 -5.230469 Z M 6.527344 -5.230469 "/></g></g></g><g fill="#000000" fill-opacity="1"><g transform="translate(143.363887, 251.938418)"><g><path d="M 0.605469 -6.042969 C 0.605469 -2.554688 3.382812 0.222656 6.871094 0.222656 C 10.359375 0.222656 13.15625 -2.554688 13.15625 -6.042969 C 13.15625 -9.53125 10.359375 -12.328125 6.871094 -12.328125 C 3.382812 -12.328125 0.605469 -9.53125 0.605469 -6.042969 Z M 2.398438 -6.042969 C 2.398438 -8.527344 4.386719 -10.53125 6.871094 -10.53125 C 9.355469 -10.53125 11.359375 -8.527344 11.359375 -6.042969 C 11.359375 -3.554688 9.355469 -1.570312 6.871094 -1.570312 C 4.386719 -1.570312 2.398438 -3.554688 2.398438 -6.042969 Z M 2.398438 -6.042969 "/></g></g></g><g fill="#000000" fill-opacity="1"><g transform="translate(157.236176, 251.938418)"><g><path d="M 6.507812 -12.207031 L 1.484375 -12.207031 L 1.484375 0 L 6.941406 0 C 9.253906 0 10.445312 -1.828125 10.445312 -3.644531 C 10.445312 -4.78125 9.945312 -6.058594 8.5625 -6.648438 C 9.390625 -7.269531 9.773438 -8.148438 9.773438 -9.027344 C 9.773438 -10.636719 8.511719 -12.207031 6.507812 -12.207031 Z M 6.472656 -7.269531 L 3.210938 -7.269531 L 3.210938 -10.546875 L 6.507812 -10.546875 C 7.492188 -10.546875 7.957031 -9.773438 7.957031 -8.960938 C 7.957031 -8.132812 7.441406 -7.269531 6.472656 -7.269531 Z M 6.941406 -1.691406 L 3.210938 -1.691406 L 3.210938 -5.542969 L 6.941406 -5.542969 C 8.113281 -5.542969 8.703125 -4.574219 8.703125 -3.625 C 8.703125 -2.675781 8.113281 -1.691406 6.941406 -1.691406 Z M 6.941406 -1.691406 "/></g></g></g><g fill="#000000" fill-opacity="1"><g transform="translate(168.313304, 251.938418)"><g/></g></g><g fill="#000000" fill-opacity="1"><g transform="translate(172.609576, 251.938418)"><g><path d="M 2.988281 -3.054688 L 7.890625 -3.054688 L 9.046875 0 L 10.910156 0 L 6.058594 -12.242188 L 4.78125 -12.242188 L -0.0703125 0 L 1.8125 0 Z M 7.25 -4.695312 L 3.625 -4.695312 L 5.4375 -9.460938 Z M 7.25 -4.695312 "/></g></g></g><g fill="#000000" fill-opacity="1"><g transform="translate(183.548673, 251.938418)"><g><path d="M 5.90625 -12.085938 L 1.484375 -12.085938 L 1.484375 0 L 3.246094 0 L 3.246094 -4.023438 L 5.90625 -4.023438 C 8.511719 -4.023438 9.824219 -6.023438 9.824219 -8.046875 C 9.824219 -10.066406 8.511719 -12.085938 5.90625 -12.085938 Z M 5.90625 -5.75 L 3.246094 -5.75 L 3.246094 -10.324219 L 5.90625 -10.324219 C 7.371094 -10.324219 8.097656 -9.183594 8.097656 -8.027344 C 8.097656 -6.886719 7.371094 -5.75 5.90625 -5.75 Z M 5.90625 -5.75 "/></g></g></g><g fill="#000000" fill-opacity="1"><g transform="translate(193.797603, 251.938418)"><g><path d="M 5.90625 -12.085938 L 1.484375 -12.085938 L 1.484375 0 L 3.246094 0 L 3.246094 -4.023438 L 5.90625 -4.023438 C 8.511719 -4.023438 9.824219 -6.023438 9.824219 -8.046875 C 9.824219 -10.066406 8.511719 -12.085938 5.90625 -12.085938 Z M 5.90625 -5.75 L 3.246094 -5.75 L 3.246094 -10.324219 L 5.90625 -10.324219 C 7.371094 -10.324219 8.097656 -9.183594 8.097656 -8.027344 C 8.097656 -6.886719 7.371094 -5.75 5.90625 -5.75 Z M 5.90625 -5.75 "/></g></g></g><g fill="#000000" fill-opacity="1"><g transform="translate(204.046533, 251.938418)"><g><path d="M 8.910156 -1.742188 L 3.226562 -1.742188 L 3.226562 -12.085938 L 1.484375 -12.085938 L 1.484375 0 L 8.910156 0 Z M 8.910156 -1.742188 "/></g></g></g><g fill="#000000" fill-opacity="1"><g transform="translate(213.035914, 251.938418)"><g><path d="M 5.472656 -10.582031 L 7.71875 -10.582031 L 7.71875 -12.1875 L 1.484375 -12.1875 L 1.484375 -10.582031 L 3.730469 -10.582031 L 3.730469 -1.621094 L 1.484375 -1.621094 L 1.484375 0 L 7.71875 0 L 7.71875 -1.621094 L 5.472656 -1.621094 Z M 5.472656 -10.582031 "/></g></g></g><g fill="#000000" fill-opacity="1"><g transform="translate(222.215093, 251.938418)"><g><path d="M 0.671875 -6.007812 C 0.671875 -4.332031 1.398438 -2.796875 2.433594 -1.691406 C 3.488281 -0.585938 5.007812 0.0859375 6.648438 0.0859375 C 9.460938 0.0859375 11.671875 -1.777344 12.359375 -4.523438 L 10.652344 -4.523438 C 10.03125 -2.691406 8.476562 -1.640625 6.648438 -1.640625 C 5.488281 -1.640625 4.332031 -2.125 3.574219 -2.917969 C 2.8125 -3.710938 2.363281 -4.800781 2.363281 -6.007812 C 2.363281 -7.25 2.832031 -8.320312 3.589844 -9.117188 C 4.351562 -9.910156 5.488281 -10.460938 6.648438 -10.460938 C 8.425781 -10.460938 9.910156 -9.496094 10.546875 -7.683594 L 12.273438 -7.683594 C 11.585938 -10.410156 9.410156 -12.1875 6.648438 -12.1875 C 5.007812 -12.1875 3.4375 -11.429688 2.382812 -10.339844 C 1.347656 -9.238281 0.671875 -7.71875 0.671875 -6.007812 Z M 0.671875 -6.007812 "/></g></g></g><g fill="#000000" fill-opacity="1"><g transform="translate(235.224683, 251.938418)"><g><path d="M 2.988281 -3.054688 L 7.890625 -3.054688 L 9.046875 0 L 10.910156 0 L 6.058594 -12.242188 L 4.78125 -12.242188 L -0.0703125 0 L 1.8125 0 Z M 7.25 -4.695312 L 3.625 -4.695312 L 5.4375 -9.460938 Z M 7.25 -4.695312 "/></g></g></g><g fill="#000000" fill-opacity="1"><g transform="translate(246.16378, 251.938418)"><g><path d="M 3.761719 -10.546875 L 3.761719 0 L 5.507812 0 L 5.507812 -10.546875 L 9.148438 -10.546875 L 9.148438 -12.207031 L 0.105469 -12.207031 L 0.105469 -10.546875 Z M 3.761719 -10.546875 "/></g></g></g><g fill="#000000" fill-opacity="1"><g transform="translate(255.429224, 251.938418)"><g><path d="M 5.472656 -10.582031 L 7.71875 -10.582031 L 7.71875 -12.1875 L 1.484375 -12.1875 L 1.484375 -10.582031 L 3.730469 -10.582031 L 3.730469 -1.621094 L 1.484375 -1.621094 L 1.484375 0 L 7.71875 0 L 7.71875 -1.621094 L 5.472656 -1.621094 Z M 5.472656 -10.582031 "/></g></g></g><g fill="#000000" fill-opacity="1"><g transform="translate(264.608403, 251.938418)"><g><path d="M 0.605469 -6.042969 C 0.605469 -2.554688 3.382812 0.222656 6.871094 0.222656 C 10.359375 0.222656 13.15625 -2.554688 13.15625 -6.042969 C 13.15625 -9.53125 10.359375 -12.328125 6.871094 -12.328125 C 3.382812 -12.328125 0.605469 -9.53125 0.605469 -6.042969 Z M 2.398438 -6.042969 C 2.398438 -8.527344 4.386719 -10.53125 6.871094 -10.53125 C 9.355469 -10.53125 11.359375 -8.527344 11.359375 -6.042969 C 11.359375 -3.554688 9.355469 -1.570312 6.871094 -1.570312 C 4.386719 -1.570312 2.398438 -3.554688 2.398438 -6.042969 Z M 2.398438 -6.042969 "/></g></g></g><g fill="#000000" fill-opacity="1"><g transform="translate(278.480692, 251.938418)"><g><path d="M 1.484375 -12.085938 L 1.484375 0 L 3.226562 0 L 3.226562 -8.441406 L 9.0625 0 L 10.445312 0 L 10.445312 -12.085938 L 8.71875 -12.085938 L 8.71875 -3.574219 L 2.832031 -12.085938 Z M 1.484375 -12.085938 "/></g></g></g><g fill="#000000" fill-opacity="1"><g transform="translate(290.403264, 251.938418)"><g/></g></g><g fill="#000000" fill-opacity="1"><g transform="translate(294.699535, 251.938418)"><g><path d="M 3.761719 -10.546875 L 3.761719 0 L 5.507812 0 L 5.507812 -10.546875 L 9.148438 -10.546875 L 9.148438 -12.207031 L 0.105469 -12.207031 L 0.105469 -10.546875 Z M 3.761719 -10.546875 "/></g></g></g><g fill="#000000" fill-opacity="1"><g transform="translate(303.964979, 251.938418)"><g><path d="M 5.886719 -6.128906 L 3.851562 -6.128906 L 3.851562 -5.300781 L 8.253906 0 L 10.515625 0 L 6.699219 -4.539062 C 8.769531 -4.902344 9.824219 -6.527344 9.824219 -8.234375 C 9.824219 -10.152344 8.511719 -12.242188 5.886719 -12.242188 L 1.484375 -12.242188 L 1.484375 0 L 3.210938 0 L 3.210938 -10.480469 L 5.886719 -10.480469 C 7.355469 -10.480469 8.078125 -9.269531 8.078125 -8.234375 C 8.078125 -7.183594 7.355469 -6.128906 5.886719 -6.128906 Z M 5.886719 -6.128906 "/></g></g></g><g fill="#000000" fill-opacity="1"><g transform="translate(314.248419, 251.938418)"><g><path d="M 2.988281 -3.054688 L 7.890625 -3.054688 L 9.046875 0 L 10.910156 0 L 6.058594 -12.242188 L 4.78125 -12.242188 L -0.0703125 0 L 1.8125 0 Z M 7.25 -4.695312 L 3.625 -4.695312 L 5.4375 -9.460938 Z M 7.25 -4.695312 "/></g></g></g><g fill="#000000" fill-opacity="1"><g transform="translate(325.187506, 251.938418)"><g><path d="M 0.671875 -6.007812 C 0.671875 -4.332031 1.398438 -2.796875 2.433594 -1.691406 C 3.488281 -0.585938 5.007812 0.0859375 6.648438 0.0859375 C 9.460938 0.0859375 11.671875 -1.777344 12.359375 -4.523438 L 10.652344 -4.523438 C 10.03125 -2.691406 8.476562 -1.640625 6.648438 -1.640625 C 5.488281 -1.640625 4.332031 -2.125 3.574219 -2.917969 C 2.8125 -3.710938 2.363281 -4.800781 2.363281 -6.007812 C 2.363281 -7.25 2.832031 -8.320312 3.589844 -9.117188 C 4.351562 -9.910156 5.488281 -10.460938 6.648438 -10.460938 C 8.425781 -10.460938 9.910156 -9.496094 10.546875 -7.683594 L 12.273438 -7.683594 C 11.585938 -10.410156 9.410156 -12.1875 6.648438 -12.1875 C 5.007812 -12.1875 3.4375 -11.429688 2.382812 -10.339844 C 1.347656 -9.238281 0.671875 -7.71875 0.671875 -6.007812 Z M 0.671875 -6.007812 "/></g></g></g><g fill="#000000" fill-opacity="1"><g transform="translate(338.197096, 251.938418)"><g><path d="M 3.210938 0 L 3.210938 -12.085938 L 1.484375 -12.085938 L 1.484375 0 Z M 7.75 -12.085938 L 3.539062 -6.472656 L 3.539062 -5.59375 L 8.148438 0 L 10.394531 0 L 5.300781 -6.078125 L 9.910156 -12.085938 Z M 7.75 -12.085938 "/></g></g></g><g fill="#000000" fill-opacity="1"><g transform="translate(348.480525, 251.938418)"><g><path d="M 8.855469 -1.742188 L 3.246094 -1.742188 L 3.246094 -5.300781 L 8.71875 -5.300781 L 8.71875 -7.0625 L 3.246094 -7.0625 L 3.246094 -10.460938 L 8.839844 -10.460938 L 8.839844 -12.207031 L 1.484375 -12.207031 L 1.484375 0 L 8.855469 0 Z M 8.855469 -1.742188 "/></g></g></g><g fill="#000000" fill-opacity="1"><g transform="translate(358.10832, 251.938418)"><g><path d="M 5.886719 -6.128906 L 3.851562 -6.128906 L 3.851562 -5.300781 L 8.253906 0 L 10.515625 0 L 6.699219 -4.539062 C 8.769531 -4.902344 9.824219 -6.527344 9.824219 -8.234375 C 9.824219 -10.152344 8.511719 -12.242188 5.886719 -12.242188 L 1.484375 -12.242188 L 1.484375 0 L 3.210938 0 L 3.210938 -10.480469 L 5.886719 -10.480469 C 7.355469 -10.480469 8.078125 -9.269531 8.078125 -8.234375 C 8.078125 -7.183594 7.355469 -6.128906 5.886719 -6.128906 Z M 5.886719 -6.128906 "/></g></g></g></svg>