<svg xmlns="http://www.w3.org/2000/svg" viewBox="0 0 500 500"><g id="freepik--Document--inject-33"><path d="M234.9,432.74,115.8,215.31,33.51,243.16l26.69,51.9-1.69-2.9-5,1.66a3.64,3.64,0,0,0-2.08,5.12l13.16,25.59a8.66,8.66,0,0,0,9.14,4.59l3.65-.61,64.1,124.65Z" style="fill:#2e353a"></path><path d="M311.84,121.43h0a5.51,5.51,0,0,1-7.47-2.18l-3.05-5.57L115.8,215.31,234.9,432.74,420.43,331.12,355.59,212.75a5.5,5.5,0,0,1,2.18-7.46h0a5.5,5.5,0,0,0,2.18-7.47L319.3,123.61A5.5,5.5,0,0,0,311.84,121.43Z" style="fill:#FDDD06;stroke:#2e353a;stroke-linecap:round;stroke-linejoin:round"></path><rect x="201.71" y="150.12" width="159.96" height="214.25" transform="translate(-70.01 109.49) rotate(-19.62)" style="fill:#fff;stroke:#2e353a;stroke-linecap:round;stroke-linejoin:round"></rect><rect x="179" y="154.05" width="159.96" height="78.93" transform="translate(-49.93 98.17) rotate(-19.62)" style="fill:#fff;stroke:#2e353a;stroke-linecap:round;stroke-linejoin:round"></rect><circle cx="296.48" cy="185.5" r="24.13" transform="translate(-53.24 187.77) rotate(-32.41)" style="fill:#2e353a;stroke:#2e353a;stroke-linecap:round;stroke-linejoin:round"></circle><path d="M304.58,208.23a24.08,24.08,0,0,0,14.57-14.47c-4.19-9.38-14.43-14.27-23.65-11s-14.05,13.56-11.36,23.47A24.09,24.09,0,0,0,304.58,208.23Z" style="fill:#fff;stroke:#2e353a;stroke-linecap:round;stroke-linejoin:round"></path><circle cx="294.86" cy="180.96" r="12.23" transform="translate(-45.92 240.6) rotate(-41.46)" style="fill:#fff;stroke:#2e353a;stroke-linecap:round;stroke-linejoin:round"></circle><rect x="192.53" y="195.35" width="55.98" height="6.43" transform="translate(-53.86 85.55) rotate(-19.62)" style="fill:#fff;stroke:#2e353a;stroke-linecap:round;stroke-linejoin:round"></rect><rect x="197.72" y="209.9" width="55.98" height="6.43" transform="translate(-58.44 88.14) rotate(-19.62)" style="fill:#fff;stroke:#2e353a;stroke-linecap:round;stroke-linejoin:round"></rect><rect x="201.5" y="222.11" width="55.98" height="3.22" transform="translate(-61.79 90.02) rotate(-19.62)" style="fill:#2e353a"></rect><rect x="204.09" y="229.39" width="55.98" height="3.22" transform="translate(-64.08 91.31) rotate(-19.62)" style="fill:#2e353a"></rect><rect x="217.26" y="266.36" width="55.98" height="3.22" transform="translate(-75.72 97.88) rotate(-19.62)" style="fill:#2e353a"></rect><rect x="219.64" y="273.03" width="55.98" height="3.22" transform="translate(-77.83 99.07) rotate(-19.62)" style="fill:#2e353a"></rect><rect x="222.02" y="279.7" width="55.98" height="3.22" transform="translate(-79.93 100.25) rotate(-19.62)" style="fill:#2e353a"></rect><rect x="288.79" y="240.87" width="55.98" height="3.22" transform="translate(-63.02 120.41) rotate(-19.62)" style="fill:#2e353a"></rect><rect x="291.17" y="247.54" width="55.98" height="3.22" transform="translate(-65.12 121.6) rotate(-19.62)" style="fill:#2e353a"></rect><rect x="293.54" y="254.21" width="55.98" height="3.22" transform="translate(-67.22 122.78) rotate(-19.62)" style="fill:#2e353a"></rect><line x1="214.98" y1="270.22" x2="342.27" y2="224.86" style="fill:none;stroke:#2e353a;stroke-linecap:round;stroke-linejoin:round"></line><rect x="229.58" y="300.91" width="55.98" height="3.22" transform="translate(-86.61 104.02) rotate(-19.62)" style="fill:#2e353a"></rect><rect x="231.95" y="307.58" width="55.98" height="3.22" transform="translate(-88.71 105.21) rotate(-19.62)" style="fill:#2e353a"></rect><rect x="234.33" y="314.25" width="55.98" height="3.22" transform="translate(-90.81 106.39) rotate(-19.62)" style="fill:#2e353a"></rect><rect x="301.1" y="275.42" width="55.98" height="3.22" transform="translate(-73.9 126.55) rotate(-19.62)" style="fill:#2e353a"></rect><rect x="303.48" y="282.09" width="55.98" height="3.22" transform="translate(-76 127.74) rotate(-19.62)" style="fill:#2e353a"></rect><rect x="305.85" y="288.76" width="55.98" height="3.22" transform="translate(-78.1 128.92) rotate(-19.62)" style="fill:#2e353a"></rect><line x1="227.29" y1="304.77" x2="354.58" y2="259.41" style="fill:none;stroke:#2e353a;stroke-linecap:round;stroke-linejoin:round"></line><rect x="241.11" y="314.1" width="132.56" height="32.17" transform="translate(-93.01 122.35) rotate(-19.62)" style="fill:#2e353a;stroke:#2e353a;stroke-linecap:round;stroke-linejoin:round"></rect><rect x="190.07" y="164.82" width="159.96" height="214.25" transform="translate(-85.31 128.41) rotate(-23.21)" style="fill:#fff;stroke:#2e353a;stroke-linecap:round;stroke-linejoin:round"></rect><rect x="163.41" y="170.3" width="159.96" height="78.93" transform="translate(-62.96 112.87) rotate(-23.21)" style="fill:#fff;stroke:#2e353a;stroke-linecap:round;stroke-linejoin:round"></rect><circle cx="280.31" cy="199.42" r="24.13" transform="translate(-37.95 330.01) rotate(-57.74)" style="fill:#2e353a;stroke:#2e353a;stroke-linecap:round;stroke-linejoin:round"></circle><path d="M289.82,221.6a24.08,24.08,0,0,0,13.63-15.36c-4.76-9.09-15.29-13.34-24.28-9.48S266,211.17,269.3,220.89A24.1,24.1,0,0,0,289.82,221.6Z" style="fill:#fff;stroke:#2e353a;stroke-linecap:round;stroke-linejoin:round"></path><circle cx="278.41" cy="194.98" r="12.23" transform="translate(-58.17 242.33) rotate(-43.01)" style="fill:#fff;stroke:#2e353a;stroke-linecap:round;stroke-linejoin:round"></circle><rect x="177.33" y="214" width="55.98" height="6.43" transform="translate(-68.98 98.48) rotate(-23.21)" style="fill:#fff;stroke:#2e353a;stroke-linecap:round;stroke-linejoin:round"></rect><rect x="183.42" y="228.19" width="55.98" height="6.43" transform="translate(-74.08 102.03) rotate(-23.21)" style="fill:#fff;stroke:#2e353a;stroke-linecap:round;stroke-linejoin:round"></rect><rect x="187.86" y="240.15" width="55.98" height="3.22" transform="translate(-77.8 104.61) rotate(-23.21)" style="fill:#2e353a"></rect><rect x="190.9" y="247.25" width="55.98" height="3.22" transform="translate(-80.35 106.38) rotate(-23.21)" style="fill:#2e353a"></rect><rect x="206.37" y="283.32" width="55.98" height="3.22" transform="translate(-93.31 115.4) rotate(-23.21)" style="fill:#2e353a"></rect><rect x="209.16" y="289.83" width="55.98" height="3.22" transform="translate(-95.65 117.02) rotate(-23.21)" style="fill:#2e353a"></rect><rect x="211.94" y="296.34" width="55.98" height="3.22" transform="translate(-97.99 118.65) rotate(-23.21)" style="fill:#2e353a"></rect><rect x="276.15" y="253.41" width="55.98" height="3.22" transform="translate(-75.88 140.48) rotate(-23.21)" style="fill:#2e353a"></rect><rect x="278.94" y="259.91" width="55.98" height="3.22" transform="translate(-78.22 142.1) rotate(-23.21)" style="fill:#2e353a"></rect><rect x="281.73" y="266.42" width="55.98" height="3.22" transform="translate(-80.55 143.73) rotate(-23.21)" style="fill:#2e353a"></rect><line x1="204.28" y1="289.08" x2="328.48" y2="235.83" style="fill:none;stroke:#2e353a;stroke-linecap:round;stroke-linejoin:round"></line><rect x="220.82" y="317.04" width="55.98" height="3.22" transform="translate(-105.43 123.82) rotate(-23.21)" style="fill:#2e353a"></rect><rect x="223.61" y="323.54" width="55.98" height="3.22" transform="translate(-107.76 125.44) rotate(-23.21)" style="fill:#2e353a"></rect><rect x="226.4" y="330.05" width="55.98" height="3.22" transform="translate(-110.1 127.07) rotate(-23.21)" style="fill:#2e353a"></rect><rect x="290.61" y="287.12" width="55.98" height="3.22" transform="translate(-87.99 148.9) rotate(-23.21)" style="fill:#2e353a"></rect><rect x="293.4" y="293.62" width="55.98" height="3.22" transform="translate(-90.33 150.52) rotate(-23.21)" style="fill:#2e353a"></rect><rect x="296.18" y="300.13" width="55.98" height="3.22" transform="translate(-92.67 152.15) rotate(-23.21)" style="fill:#2e353a"></rect><line x1="218.73" y1="322.79" x2="342.93" y2="269.54" style="fill:none;stroke:#2e353a;stroke-linecap:round;stroke-linejoin:round"></line><rect x="233.99" y="327.05" width="132.56" height="32.17" transform="translate(-110.92 146.08) rotate(-23.21)" style="fill:#2e353a;stroke:#2e353a;stroke-linecap:round;stroke-linejoin:round"></rect><rect x="179" y="166.89" width="159.96" height="214.25" transform="translate(-107.45 185.22) rotate(-32.99)" style="fill:#fff;stroke:#2e353a;stroke-linecap:round;stroke-linejoin:round"></rect><rect x="142.16" y="177.81" width="159.96" height="78.93" transform="translate(-82.49 156.01) rotate(-32.99)" style="fill:#fff;stroke:#2e353a;stroke-linecap:round;stroke-linejoin:round"></rect><circle cx="256.76" cy="200.8" r="24.13" transform="translate(-28.9 43.81) rotate(-9.23)" style="fill:#2e353a;stroke:#2e353a;stroke-linecap:round;stroke-linejoin:round"></circle><path d="M269.9,221a24.09,24.09,0,0,0,10.83-17.45c-6.24-8.16-17.34-10.54-25.54-5.22s-10.54,16.44-5.63,25.46A24.06,24.06,0,0,0,269.9,221Z" style="fill:#FDDD06;stroke:#2e353a;stroke-linecap:round;stroke-linejoin:round"></path><circle cx="254.14" cy="196.75" r="12.23" transform="translate(-66.91 211.82) rotate(-40.43)" style="fill:#fff;stroke:#2e353a;stroke-linecap:round;stroke-linejoin:round"></circle><rect x="157.9" y="227.87" width="55.98" height="6.43" transform="translate(-95.86 138.5) rotate(-32.99)" style="fill:#fff;stroke:#2e353a;stroke-linecap:round;stroke-linejoin:round"></rect><rect x="166.31" y="240.82" width="55.98" height="6.43" transform="translate(-101.56 145.17) rotate(-32.99)" style="fill:#fff;stroke:#2e353a;stroke-linecap:round;stroke-linejoin:round"></rect><rect x="172.45" y="251.87" width="55.98" height="3.22" transform="matrix(0.84, -0.54, 0.54, 0.84, -105.71, 150.03)" style="fill:#2e353a"></rect><rect x="176.65" y="258.35" width="55.98" height="3.22" transform="translate(-108.56 153.36) rotate(-32.99)" style="fill:#2e353a"></rect><rect x="198.03" y="291.27" width="55.98" height="3.22" transform="translate(-123.04 170.31) rotate(-32.99)" style="fill:#2e353a"></rect><rect x="201.88" y="297.21" width="55.98" height="3.22" transform="translate(-125.65 173.37) rotate(-32.99)" style="fill:#2e353a"></rect><rect x="205.73" y="303.15" width="55.98" height="3.22" transform="translate(-128.26 176.43) rotate(-32.99)" style="fill:#2e353a"></rect><rect x="261.71" y="249.92" width="55.98" height="3.22" transform="translate(-90.25 198.32) rotate(-32.99)" style="fill:#2e353a"></rect><rect x="265.57" y="255.86" width="55.98" height="3.22" transform="translate(-92.86 201.38) rotate(-32.99)" style="fill:#2e353a"></rect><rect x="269.42" y="261.8" width="55.98" height="3.22" transform="translate(-95.47 204.44) rotate(-32.99)" style="fill:#2e353a"></rect><line x1="197.08" y1="302.08" x2="310.42" y2="228.49" style="fill:none;stroke:#2e353a;stroke-linecap:round;stroke-linejoin:round"></line><rect x="218" y="322.04" width="55.98" height="3.22" transform="translate(-136.57 186.15) rotate(-32.99)" style="fill:#2e353a"></rect><rect x="221.85" y="327.97" width="55.98" height="3.22" transform="translate(-139.18 189.21) rotate(-32.99)" style="fill:#2e353a"></rect><rect x="225.71" y="333.91" width="55.98" height="3.22" transform="translate(-141.79 192.26) rotate(-32.99)" style="fill:#2e353a"></rect><rect x="281.68" y="280.69" width="55.98" height="3.22" transform="translate(-103.78 214.16) rotate(-32.99)" style="fill:#2e353a"></rect><rect x="285.54" y="286.62" width="55.98" height="3.22" transform="translate(-106.39 217.22) rotate(-32.99)" style="fill:#2e353a"></rect><rect x="289.39" y="292.56" width="55.98" height="3.22" transform="translate(-109.01 220.28) rotate(-32.99)" style="fill:#2e353a"></rect><line x1="217.05" y1="332.84" x2="330.39" y2="259.26" style="fill:none;stroke:#2e353a;stroke-linecap:round;stroke-linejoin:round"></line><rect x="234.59" y="322.95" width="132.56" height="32.17" transform="translate(-136.1 218.52) rotate(-32.99)" style="fill:#2e353a;stroke:#2e353a;stroke-linecap:round;stroke-linejoin:round"></rect><path d="M115.8,215.31,44.68,160.25,87,239.64c1,1.92-1.65,2.28-4.35.58h0c-2.73-1.71-5.42-1.33-4.35.61l21.95,39.9a5,5,0,0,0,1.35,1.45l10.72,8.08a4.79,4.79,0,0,1,1.37,1.49l44.41,84.35,76.81,56.64Z" style="fill:#FDDD06;stroke:#2e353a;stroke-linecap:round;stroke-linejoin:round"></path><path d="M115.8,215.31,44.68,160.25,87,239.64c1,1.92-1.65,2.28-4.35.58h0c-2.73-1.71-5.42-1.33-4.35.61l21.95,39.9a5,5,0,0,0,1.35,1.45l10.72,8.08a4.79,4.79,0,0,1,1.37,1.49l44.41,84.35,76.81,56.64Z" style="fill:#2e353a;stroke:#2e353a;stroke-linecap:round;stroke-linejoin:round;opacity:0.25"></path></g><g id="freepik--Character--inject-33"><path d="M418.73,336.52a.15.15,0,0,0-.08-.08c-1.17-.51-11-.42-11.26.16,0,.07.05.16.2.26a4.34,4.34,0,0,0,.66.34c.28.12.62.25,1,.38s.74.26,1.13.38l1.67.52.88.26.58.16-10.18,9.85a77.24,77.24,0,0,1-6.67,5.44l-.46-.46a22.39,22.39,0,0,0-2.11-1.8v-.26a22,22,0,0,1-2.69,1.46c-3.48,1.75-13.24,6.13-16.72,13.15a109.77,109.77,0,0,1-5.8,10.38v.46l-.28,0c-3.37-.29-9.79,1.95-14.51,4.28a106.26,106.26,0,0,0-11.62,7.45h0l-3.66,1.29c-1.33.19-3.77.5-4.11.91s-2.71,0-3.76.26-.75,1-.75,1l2,.19L319,397.09l10.61,8.42L344,400.17l.77.19a6.15,6.15,0,0,0,4.62-.41,15.47,15.47,0,0,0,1.49-.65c2.66-.35,10.75-2.13,13.56-2.75,2.11,2.86,8.13,7.67,9.16,9.75a2.36,2.36,0,0,1,.12.34s0,.05,0,.08a.55.55,0,0,1,0,.26,14.91,14.91,0,0,1-1.85,3.27,26.91,26.91,0,0,0-4.23-1.35c-5.47-1.26-8.46,4.42-9.41,4.7s-2.11,1.12-1,1.92-.57,1.54-1.25,2.62a9.15,9.15,0,0,0-.85,2.71c-3.61.31-6.7,1.8-7.5,4-1,2.81,8.11,4.87,8.11,4.87s12.61,4.93,22.23,1.84,9.25-8.24,10-11,8.6-9.55,17.41-14.28,12.64-9,4.26-15.41c-5.5-4.21-10.34-6.23-14.33-6.39h0c.1-.24.21-.48.32-.71l.2-.44c.12-.25.26-.49.39-.74l.2-.36c.21-.36.43-.71.67-1.06a12.4,12.4,0,0,0,1.09-1.88,10,10,0,0,0,.73-6.53,8.16,8.16,0,0,1-.28-1.94c.2-1.31,2.38-6.46,2.94-8.75a1.87,1.87,0,0,0,0-.48,5.08,5.08,0,0,0-.6-1.84c2.25-1.34,6.78-3.78,8.86-6.09s6.63-10.54,8.33-14.76h0c.07-.17.13-.34.19-.5h0c.06-.15.11-.31.16-.45h0q.06-.21.12-.39v-.05c0-.1.06-.21.08-.3a.09.09,0,0,1,0-.05c0-.09,0-.17,0-.24v-.07a.92.92,0,0,0,0-.16l0-.08S418.74,336.55,418.73,336.52ZM365.6,392.81c-3.09.86-10.21,3.11-14,4.37l-7-6.41c1.7-.88,5.47-2.52,9.75-4.36a59.23,59.23,0,0,1,12.28-3.15,6,6,0,0,1,.67,2.07,23.59,23.59,0,0,0,1.5,3.6A13,13,0,0,1,365.6,392.81Z" style="fill:#2e353a"></path><path d="M406.75,288.38A188.21,188.21,0,0,1,412,307.8c1.41,7.73,4.36,23.82,4.36,23.82s-7.42.42-7.55,1.63,9.79,6,11.27,5.53,2.33-30.66,1.44-37.52-5.63-16-6-18.06-1.18-6.07-1.18-6.07Z" style="fill:#fff;stroke:#2e353a;stroke-linecap:round;stroke-linejoin:round"></path><path d="M420.08,338.78c.37-.11.7-2,1-5-2.91,2.14-5,0-5,0l.27-2.14s-7.42.42-7.55,1.63S418.6,339.24,420.08,338.78Z" style="fill:#FDDD06;stroke:#2e353a;stroke-linecap:round;stroke-linejoin:round"></path><path d="M402.34,197.93s-11.78-12.14-13.53-13-2.36,1-1.86,2.05,12.48,16.93,14.51,19S402.34,197.93,402.34,197.93Z" style="fill:#fff;stroke:#2e353a;stroke-linecap:round;stroke-linejoin:round"></path><polygon points="371.78 163.54 355.99 174.92 374.67 201.87 389.11 189.72 371.78 163.54" style="fill:#2e353a;stroke:#2e353a;stroke-linecap:round;stroke-linejoin:round"></polygon><polygon points="371.89 166.47 358.53 176.1 374.34 198.91 386.56 188.63 371.89 166.47" style="fill:#FDDD06;stroke:#2e353a;stroke-linecap:round;stroke-linejoin:round"></polygon><path d="M390.22,187.08a21.86,21.86,0,0,0-1.88-3.62c-1.3-2-2.13-3.07-4.42-2.94a25,25,0,0,1-5.08-.37c-1.31-.14-1.33,1.75-.64,2.4s4.5.49,4.5.49c-.39-.51-.1.32,2.42,3.79.71,1,3.2,1.17,3.76,1.23" style="fill:#fff;stroke:#2e353a;stroke-linecap:round;stroke-linejoin:round"></path><path d="M407.12,143.75a45.69,45.69,0,0,0-1.17,7.52c0,2.4,1.3,4.64-.32,5.66s-.94,3.2-.15,4.18.38,13.39,6.67,13.48,12.34-3.15,13.62-6.61,4.45-13.31.46-17.95S410.8,137.55,407.12,143.75Z" style="fill:#fff;stroke:#2e353a;stroke-linecap:round;stroke-linejoin:round"></path><polyline points="407.36 155.24 408.35 157.06 407.15 157.1" style="fill:none;stroke:#2e353a;stroke-linecap:round;stroke-linejoin:round"></polyline><path d="M407.16,152.32s1.88,0,2,3.12" style="fill:none;stroke:#2e353a;stroke-linecap:round;stroke-linejoin:round"></path><path d="M417.15,172.73a49.38,49.38,0,0,1,0,8.4,2.94,2.94,0,0,1-.53,1.26,50.69,50.69,0,0,1,10-5.33l1-.38a105.75,105.75,0,0,1-.76-12.79Z" style="fill:#fff;stroke:#2e353a;stroke-linecap:round;stroke-linejoin:round"></path><path d="M390.32,292.43s-.54,13.55.6,18.18,5.35,42.93,5.17,46.39-.32,4.88-.32,4.88-10.41,1.52-11.47,1.82-1.41,1.69,4.35,3.34,10.19,4.18,11.42,2.27,2.9-9,3.39-14.17c1.15-12,3.12-25.48,1.94-31.54S401.15,310,401.57,308s6.92-24,6.92-24Z" style="fill:#fff;stroke:#2e353a;stroke-linecap:round;stroke-linejoin:round"></path><path d="M400.07,369.31a14.71,14.71,0,0,0,1.29-4.17c-3.05,1.61-6.8-.67-6.8-.67l1.21-2.59s-10.41,1.52-11.47,1.82-1.41,1.69,4.35,3.34S398.84,371.22,400.07,369.31Z" style="fill:#FDDD06;stroke:#2e353a;stroke-linecap:round;stroke-linejoin:round"></path><path d="M417.15,172.73a49.38,49.38,0,0,1,0,8.4c-.42,3.85-17.85,15.14-17.41,19.39s2.49,10.17,1.34,15.14-7.53,22.27-8.8,28.43-6.1,53-3.92,55.06,11,1.19,15.44-1.32,13.61-12,14.42-16.71,1.72-15.71,2.31-18.35,5.18-9,4.67-20.78,3.74-26,4.74-35.17,0-21.6-1.59-26.57-1.51-16.36-1.51-16.36Z" style="fill:#FDDD06;stroke:#2e353a;stroke-linecap:round;stroke-linejoin:round"></path><path d="M418.2,281.12c.82-4.71,1.72-15.71,2.31-18.35s5.18-9,4.67-20.78c-.29-6.46.87-13.66,2.14-20.37-3.33,3.16-12,10.52-21.25,11.38-6.69.63-8.87-1.32-9.5-3.14-1.85,5.58-3.69,11.23-4.31,14.23-1.28,6.16-6.1,53-3.92,55.06s11,1.19,15.44-1.32S417.39,285.83,418.2,281.12Z" style="fill:#2e353a;stroke:#2e353a;stroke-linecap:round;stroke-linejoin:round"></path><line x1="416.31" y1="267.46" x2="402.81" y2="290.98" style="fill:none;stroke:#fff;stroke-linecap:round;stroke-linejoin:round;stroke-width:0.5px"></line><line x1="410.14" y1="282.5" x2="403.97" y2="294.84" style="fill:none;stroke:#fff;stroke-linecap:round;stroke-linejoin:round;stroke-width:0.5px"></line><path d="M460.65,189.41c-2.61-11.31-10-15.22-16.52-19.13-3-1.79-4-4.85-4.14-7.65l-.33,3a18.58,18.58,0,0,1,0-4.27c.11-.66.25-1.37.41-2.14a17.51,17.51,0,0,0-.1,3.37l.67-6.26,0,.07c1-5.61,1.45-13.08-4.43-20.91-7.85-10.46-23.55-6.77-23.55-6.77s-10.47-.25-11.12,5.68,3.25,11.45,8.52,12.63c0,0,1.07,2.28,2.29,5.69a5,5,0,0,0-1.25,1.87s1.74.87,2.61,6.52-7.83,16.09-7,23,8.26,7,7.82,10.87-5.65,3-5.21,7.82c.31,3.43,6.22,7.76,10,10.9a79.43,79.43,0,0,0-.07,10,23.1,23.1,0,0,0-3.43,12.6c.26,6.44,6.21,8.73,11.86,7.22a27,27,0,0,0,4.52-1.68c5.32,2.14,18.26.49,24.48-9.88,6.52-10.87.43-14.35,0-22.17S463.26,200.71,460.65,189.41Z" style="fill:#2e353a;stroke:#2e353a;stroke-linecap:round;stroke-linejoin:round"></path><path d="M409.29,138.21A47,47,0,0,0,420.66,149c8.26,5.22,2.61,20.87-3.91,27.82s-5.22,13.48,2.17,16.95,20.43,7.39,13,20-8.26,22.6,2.61,25.65" style="fill:none;stroke:#fff;stroke-linecap:round;stroke-linejoin:round;stroke-width:0.5px"></path><path d="M406.75,134.64s.6,1,1.7,2.45" style="fill:none;stroke:#fff;stroke-linecap:round;stroke-linejoin:round;stroke-width:0.5px"></path><path d="M443.82,237.93a5.5,5.5,0,0,0,4.23-.71" style="fill:none;stroke:#fff;stroke-linecap:round;stroke-linejoin:round;stroke-width:0.5px"></path><path d="M435.84,190.22c6.74,2.42,14,4.46,14.81,11.36,1.31,11.3-13.91,16.52-13.91,25.64,0,4.29,1.63,7.33,3.76,9.08" style="fill:none;stroke:#fff;stroke-linecap:round;stroke-linejoin:round;stroke-width:0.5px"></path><path d="M420.66,149s10.43,3.91,13,10.43-13.47,16.09-8.26,24.35c1.61,2.54,4.49,4.13,7.76,5.45" style="fill:none;stroke:#fff;stroke-linecap:round;stroke-linejoin:round;stroke-width:0.5px"></path><path d="M435.2,139.82s9,9.19,4.89,19.44-6,14.88-3,17.58S456,180.7,459.88,193" style="fill:none;stroke:#fff;stroke-linecap:round;stroke-linejoin:round;stroke-width:0.5px"></path><path d="M398.64,226.19s-9.1-6.72-13.4-14.16-7.92-13.76-7.83-14.57.53-4.86-.73-6.43-5.56-3.48-6.12-3.95-1.73.84-.43,2,2.59,2.54,2.59,2.54l-8.36-2.14a2,2,0,0,0,.16,2.27c.92.92,3.55,1.2,3.64,2.24s2.75,3,3.88,3.9a3.92,3.92,0,0,0,1.73,1s4.79,16.09,8.16,22.81,8.5,14,12.07,15,7.95-5.28,7.95-5.28Z" style="fill:#fff;stroke:#2e353a;stroke-linecap:round;stroke-linejoin:round"></path><path d="M414.45,193.93s-4.87,3.36-6.39,7.9-9.28,15.57-10.4,18.32A16.09,16.09,0,0,1,395.6,224s1,6,5.14,9.16,5.42,2.85,5.42,2.85,15-24.38,17.42-30.05S420.9,191.15,414.45,193.93Z" style="fill:#FDDD06;stroke:#2e353a;stroke-linecap:round;stroke-linejoin:round"></path></g></svg>